<svg width="140" height="27" viewBox="0 0 140 27" fill="none" xmlns="http://www.w3.org/2000/svg">
<g clip-path="url(#clip0_1_3573)">
<path d="M2.44489 22.773C2.41085 22.7557 2.40234 22.7471 2.40234 22.6953C2.40234 22.5716 2.41085 22.4364 2.41369 22.399C2.41369 22.3644 2.4222 22.3414 2.43922 22.3414C2.45907 22.3414 2.46191 22.3616 2.46191 22.3788C2.46191 22.4076 2.47042 22.4565 2.48177 22.4939C2.52999 22.6608 2.66046 22.7212 2.79945 22.7212C3.00084 22.7212 3.09728 22.5831 3.09728 22.4651C3.09728 22.3558 3.06324 22.2522 2.87887 22.1055L2.77676 22.0249C2.53282 21.8322 2.44773 21.6739 2.44773 21.4898C2.44773 21.2424 2.65195 21.064 2.96113 21.064C3.10579 21.064 3.19939 21.087 3.25612 21.1014C3.27598 21.1071 3.28732 21.1129 3.28732 21.1273C3.28732 21.156 3.27882 21.2222 3.27882 21.3977C3.27882 21.4466 3.27314 21.4668 3.25329 21.4668C3.2391 21.4668 3.2306 21.4524 3.2306 21.4265C3.2306 21.4063 3.21925 21.3373 3.17387 21.2769C3.13983 21.2337 3.07459 21.1675 2.92993 21.1675C2.76541 21.1675 2.66614 21.2654 2.66614 21.4006C2.66614 21.5042 2.71719 21.5819 2.90156 21.7257L2.96397 21.7717C3.23343 21.976 3.32987 22.1314 3.32987 22.3472C3.32987 22.4795 3.28165 22.6349 3.11997 22.7385C3.00935 22.8104 2.88454 22.8305 2.76541 22.8305C2.63777 22.8305 2.53566 22.8133 2.43922 22.773H2.44489Z" fill="#3E3A39"/>
<path d="M4.8333 21.973C4.8333 21.973 4.84465 21.973 4.84465 21.9586V21.9183C4.84465 21.6277 4.84465 21.5587 4.83898 21.4954C4.8333 21.4292 4.81628 21.4091 4.75388 21.3918C4.73686 21.386 4.70566 21.386 4.6773 21.386C4.65461 21.386 4.64326 21.3803 4.64326 21.3659C4.64326 21.3515 4.65744 21.3486 4.68581 21.3486C4.79076 21.3486 4.92691 21.3544 4.9808 21.3544C5.02618 21.3544 5.15666 21.3486 5.23325 21.3486C5.26161 21.3486 5.27579 21.3544 5.27579 21.3659C5.27579 21.3774 5.26161 21.386 5.23892 21.386C5.22474 21.386 5.20488 21.386 5.18219 21.3918C5.13113 21.4004 5.11411 21.4263 5.11128 21.4954C5.10561 21.5558 5.10561 21.6105 5.10561 21.9011V22.2406C5.10561 22.4161 5.10561 22.5686 5.11412 22.652C5.11979 22.7067 5.13113 22.7412 5.1907 22.7498C5.21623 22.7556 5.25878 22.7556 5.28998 22.7556C5.30983 22.7556 5.32118 22.7671 5.32118 22.7757C5.32118 22.7901 5.30416 22.7958 5.28147 22.7958C5.15383 22.7958 5.02618 22.7901 4.97229 22.7901C4.92691 22.7901 4.79076 22.7958 4.71417 22.7958C4.68864 22.7958 4.67162 22.7901 4.67162 22.7757C4.67162 22.7671 4.68013 22.7556 4.70283 22.7556C4.73403 22.7556 4.75672 22.7556 4.77374 22.7498C4.81345 22.7412 4.82479 22.7038 4.83047 22.6491C4.83898 22.5686 4.83898 22.4218 4.83898 22.2463V22.0996C4.83898 22.0996 4.8333 22.0881 4.82763 22.0881H4.09015C4.09015 22.0881 4.07596 22.0881 4.07596 22.0996V22.2463C4.07596 22.4218 4.07596 22.5686 4.08731 22.652C4.09298 22.7067 4.10433 22.7412 4.1639 22.7498C4.18942 22.7556 4.23481 22.7556 4.26317 22.7556C4.28586 22.7556 4.29437 22.7671 4.29437 22.7757C4.29437 22.7901 4.28019 22.7958 4.25466 22.7958C4.12702 22.7958 3.99087 22.7901 3.93698 22.7901C3.89159 22.7901 3.76395 22.7958 3.68453 22.7958C3.659 22.7958 3.64766 22.7901 3.64766 22.7757C3.64766 22.7671 3.65333 22.7556 3.67886 22.7556C3.70722 22.7556 3.72991 22.7556 3.74693 22.7498C3.78664 22.7412 3.79799 22.7038 3.80366 22.6491C3.81217 22.5686 3.81217 22.4161 3.81217 22.2406V21.9011C3.81217 21.6105 3.81217 21.5558 3.81217 21.4954C3.8065 21.4292 3.78948 21.4091 3.72708 21.3918C3.7129 21.386 3.67886 21.386 3.65049 21.386C3.63064 21.386 3.61646 21.3803 3.61646 21.3659C3.61646 21.3515 3.63064 21.3486 3.659 21.3486C3.76395 21.3486 3.89159 21.3544 3.94549 21.3544C3.99371 21.3544 4.12702 21.3486 4.20644 21.3486C4.23197 21.3486 4.24615 21.3544 4.24615 21.3659C4.24615 21.3774 4.23481 21.386 4.20928 21.386C4.1951 21.386 4.17524 21.386 4.15255 21.3918C4.09866 21.4004 4.08447 21.4263 4.0788 21.4954C4.07313 21.5558 4.07313 21.6248 4.07313 21.9183V21.9586C4.07313 21.9586 4.0788 21.973 4.08731 21.973H4.82479H4.8333Z" fill="#3E3A39"/>
<path d="M5.66154 21.904C5.66154 21.6134 5.66154 21.5587 5.66154 21.4983C5.65586 21.4292 5.63885 21.412 5.57644 21.3947C5.56226 21.389 5.52822 21.389 5.49986 21.389C5.47717 21.389 5.46582 21.3832 5.46582 21.3688C5.46582 21.3544 5.48 21.3516 5.50837 21.3516C5.61332 21.3516 5.74379 21.3573 5.80336 21.3573C5.85158 21.3573 5.9849 21.3516 6.05581 21.3516C6.08417 21.3516 6.09835 21.3573 6.09835 21.3688C6.09835 21.3803 6.08701 21.389 6.06715 21.389C6.04446 21.389 6.03312 21.389 6.01042 21.3947C5.95937 21.4034 5.94235 21.4292 5.93951 21.4983C5.93384 21.5587 5.93384 21.6134 5.93384 21.904V22.1716C5.93384 22.4506 5.98773 22.56 6.08417 22.6377C6.1721 22.7067 6.26571 22.7153 6.33095 22.7153C6.41604 22.7153 6.51532 22.6894 6.5919 22.6146C6.69969 22.5111 6.70536 22.3442 6.70536 22.1485V21.9069C6.70536 21.6163 6.70536 21.5616 6.69969 21.5012C6.69401 21.435 6.67983 21.4149 6.61743 21.3976C6.60325 21.3918 6.56921 21.3918 6.54652 21.3918C6.52383 21.3918 6.51248 21.3861 6.51248 21.3717C6.51248 21.3573 6.52666 21.3544 6.55219 21.3544C6.65147 21.3544 6.78478 21.3602 6.78478 21.3602C6.80747 21.3602 6.93795 21.3544 7.01454 21.3544C7.04006 21.3544 7.05425 21.3602 7.05425 21.3717C7.05425 21.3832 7.0429 21.3918 7.02021 21.3918C6.99752 21.3918 6.98617 21.3918 6.96348 21.3976C6.90959 21.4062 6.8954 21.4321 6.89257 21.5012C6.89257 21.5616 6.8869 21.6163 6.8869 21.9069V22.1111C6.8869 22.324 6.8642 22.5513 6.69969 22.6894C6.5607 22.8074 6.4132 22.8275 6.28556 22.8275C6.18345 22.8275 5.98206 22.8218 5.8374 22.6981C5.73812 22.6089 5.6587 22.4679 5.6587 22.1917V21.9097L5.66154 21.904Z" fill="#3E3A39"/>
<path d="M7.70081 21.9903C7.76889 21.9184 8.05254 21.6335 8.10927 21.5673C8.166 21.5041 8.20571 21.458 8.20571 21.4264C8.20571 21.4062 8.1972 21.3918 8.18018 21.389C8.16316 21.3832 8.15465 21.3803 8.15465 21.3688C8.15465 21.3544 8.166 21.3516 8.18585 21.3516C8.2284 21.3516 8.33618 21.3573 8.38724 21.3573C8.44681 21.3573 8.55743 21.3516 8.61699 21.3516C8.63685 21.3516 8.65103 21.3573 8.65103 21.3688C8.65103 21.3803 8.63969 21.389 8.62267 21.389C8.5943 21.389 8.54608 21.3976 8.50921 21.412C8.44681 21.435 8.3844 21.4753 8.30215 21.553C8.23974 21.6105 7.94759 21.8925 7.88802 21.9615C7.9561 22.0507 8.34186 22.4593 8.41844 22.5312C8.50637 22.6089 8.58012 22.6952 8.68507 22.7355C8.7418 22.7614 8.78151 22.7614 8.8042 22.7614C8.81839 22.7614 8.82973 22.77 8.82973 22.7815C8.82973 22.7959 8.81838 22.8017 8.78435 22.8017H8.61416C8.55743 22.8017 8.52055 22.8017 8.47801 22.7959C8.37306 22.7873 8.30782 22.747 8.22556 22.6722C8.14047 22.5974 7.76605 22.1543 7.7235 22.0967L7.70365 22.0709H7.69514V22.2435C7.69514 22.419 7.69514 22.5715 7.70081 22.6549C7.70649 22.7096 7.7235 22.7441 7.77172 22.7527C7.79725 22.7585 7.84264 22.7585 7.86817 22.7585C7.88518 22.7585 7.89369 22.77 7.89369 22.7786C7.89369 22.793 7.87951 22.7988 7.85682 22.7988C7.74903 22.7988 7.60721 22.793 7.55899 22.793C7.51361 22.793 7.3888 22.7988 7.31222 22.7988C7.28669 22.7988 7.27534 22.793 7.27534 22.7786C7.27534 22.77 7.28101 22.7585 7.30654 22.7585C7.33491 22.7585 7.3576 22.7585 7.37462 22.7527C7.41433 22.7441 7.42568 22.7067 7.43135 22.652C7.43986 22.5715 7.43986 22.419 7.43986 22.2435V21.904C7.43986 21.6134 7.43986 21.5587 7.43986 21.4983C7.43418 21.4321 7.41717 21.412 7.35476 21.3947C7.34058 21.389 7.30654 21.389 7.27818 21.389C7.25832 21.389 7.24414 21.3832 7.24414 21.3688C7.24414 21.3544 7.25832 21.3516 7.28952 21.3516C7.39164 21.3516 7.51644 21.3573 7.56183 21.3573C7.60721 21.3573 7.74903 21.3516 7.81427 21.3516C7.84264 21.3516 7.85682 21.3573 7.85682 21.3688C7.85682 21.3803 7.84547 21.389 7.83129 21.389C7.81144 21.389 7.80009 21.389 7.77456 21.3947C7.72067 21.4034 7.70649 21.4292 7.70081 21.4983C7.70081 21.5587 7.70081 21.6134 7.70081 21.904V21.9903Z" fill="#3E3A39"/>
<path d="M8.84122 21.904C8.84122 21.6134 8.84122 21.5587 8.84122 21.4983C8.83555 21.4292 8.81853 21.412 8.75613 21.3947C8.74195 21.389 8.70791 21.389 8.67955 21.389C8.65685 21.389 8.64551 21.3832 8.64551 21.3688C8.64551 21.3544 8.65969 21.3516 8.68805 21.3516C8.793 21.3516 8.92348 21.3573 8.98305 21.3573C9.03127 21.3573 9.16458 21.3516 9.2355 21.3516C9.26386 21.3516 9.27804 21.3573 9.27804 21.3688C9.27804 21.3803 9.2667 21.389 9.24684 21.389C9.22415 21.389 9.2128 21.389 9.19011 21.3947C9.13906 21.4034 9.12204 21.4292 9.1192 21.4983C9.11353 21.5587 9.11353 21.6134 9.11353 21.904V22.1716C9.11353 22.4506 9.16742 22.56 9.26386 22.6377C9.35179 22.7067 9.44539 22.7153 9.51063 22.7153C9.59573 22.7153 9.695 22.6894 9.77159 22.6146C9.87938 22.5111 9.88505 22.3442 9.88505 22.1485V21.9069C9.88505 21.6163 9.88505 21.5616 9.87938 21.5012C9.8737 21.435 9.85952 21.4149 9.79712 21.3976C9.78294 21.3918 9.7489 21.3918 9.72621 21.3918C9.70351 21.3918 9.69217 21.3861 9.69217 21.3717C9.69217 21.3573 9.70635 21.3544 9.73188 21.3544C9.83116 21.3544 9.96447 21.3602 9.96447 21.3602C9.98716 21.3602 10.1176 21.3544 10.1942 21.3544C10.2198 21.3544 10.2339 21.3602 10.2339 21.3717C10.2339 21.3832 10.2226 21.3918 10.1999 21.3918C10.1772 21.3918 10.1659 21.3918 10.1432 21.3976C10.0893 21.4062 10.0751 21.4321 10.0723 21.5012C10.0723 21.5616 10.0666 21.6163 10.0666 21.9069V22.1111C10.0666 22.324 10.0439 22.5513 9.87938 22.6894C9.74039 22.8074 9.59289 22.8275 9.46525 22.8275C9.36314 22.8275 9.16175 22.8218 9.01709 22.6981C8.91781 22.6089 8.83839 22.4679 8.83839 22.1917V21.9097L8.84122 21.904Z" fill="#3E3A39"/>
<path d="M10.8748 21.4666L10.5826 21.4724C10.4692 21.4724 10.4238 21.4868 10.3926 21.5299C10.3727 21.5558 10.3642 21.5817 10.3586 21.5961C10.3529 21.6133 10.35 21.622 10.3359 21.622C10.3217 21.622 10.3188 21.6105 10.3188 21.5903C10.3188 21.5587 10.3557 21.3745 10.3614 21.3573C10.3671 21.3314 10.3727 21.3228 10.3841 21.3228C10.4011 21.3228 10.421 21.3371 10.4692 21.3458C10.5259 21.3515 10.5997 21.3544 10.6649 21.3544H11.4591C11.5215 21.3544 11.5641 21.3486 11.5924 21.3458C11.6236 21.34 11.6406 21.3371 11.6463 21.3371C11.6605 21.3371 11.6605 21.3486 11.6605 21.3774C11.6605 21.4177 11.6548 21.5616 11.6548 21.6105C11.6548 21.6306 11.6492 21.6421 11.6378 21.6421C11.6236 21.6421 11.618 21.6335 11.6151 21.6047V21.5846C11.6094 21.5357 11.5584 21.4752 11.3825 21.4752L11.1358 21.4695V22.2463C11.1358 22.4218 11.1358 22.5743 11.1471 22.6578C11.1528 22.7124 11.1641 22.7469 11.2237 22.7556C11.2492 22.7613 11.2946 22.7613 11.323 22.7613C11.3457 22.7613 11.3542 22.7728 11.3542 22.7815C11.3542 22.7959 11.34 22.8016 11.3173 22.8016C11.1896 22.8016 11.0563 22.7959 11.0024 22.7959C10.9571 22.7959 10.8237 22.8016 10.7472 22.8016C10.7216 22.8016 10.7103 22.7959 10.7103 22.7815C10.7103 22.7728 10.716 22.7613 10.7415 22.7613C10.7698 22.7613 10.7954 22.7613 10.8096 22.7556C10.8493 22.7469 10.8606 22.7095 10.8663 22.6549C10.8748 22.5743 10.8748 22.4218 10.8748 22.2463V21.4695V21.4666Z" fill="#3E3A39"/>
<path d="M11.7883 22.0737C11.7883 21.7457 12.0152 21.3228 12.6081 21.3228C13.1016 21.3228 13.408 21.599 13.408 22.0392C13.408 22.4794 13.0931 22.8246 12.5882 22.8246C12.0181 22.8246 11.7883 22.4132 11.7883 22.0737ZM13.1186 22.1111C13.1186 21.6882 12.8662 21.4263 12.5513 21.4263C12.3329 21.4263 12.0777 21.5443 12.0777 22.0161C12.0777 22.4103 12.2989 22.7211 12.6705 22.7211C12.8095 22.7211 13.1186 22.6549 13.1186 22.1111Z" fill="#3E3A39"/>
<path d="M14.1056 21.9903C14.1737 21.9184 14.4573 21.6335 14.5141 21.5673C14.5708 21.5041 14.6105 21.458 14.6105 21.4264C14.6105 21.4062 14.602 21.3918 14.585 21.389C14.5679 21.3832 14.5594 21.3803 14.5594 21.3688C14.5594 21.3544 14.5708 21.3516 14.5906 21.3516C14.6332 21.3516 14.741 21.3573 14.792 21.3573C14.8516 21.3573 14.9622 21.3516 15.0218 21.3516C15.0416 21.3516 15.0558 21.3573 15.0558 21.3688C15.0558 21.3803 15.0445 21.389 15.0275 21.389C14.9991 21.389 14.9509 21.3976 14.914 21.412C14.8516 21.435 14.7892 21.4753 14.7069 21.553C14.6445 21.6105 14.3524 21.8925 14.2928 21.9615C14.3609 22.0507 14.7466 22.4593 14.8232 22.5312C14.9112 22.6089 14.9849 22.6952 15.0899 22.7355C15.1466 22.7614 15.1863 22.7614 15.209 22.7614C15.2232 22.7614 15.2345 22.77 15.2345 22.7815C15.2345 22.7959 15.2232 22.8017 15.1891 22.8017H15.0189C14.9622 22.8017 14.9253 22.8017 14.8828 22.7959C14.7778 22.7873 14.7126 22.747 14.6303 22.6722C14.5453 22.5974 14.1708 22.1543 14.1283 22.0967L14.1084 22.0709H14.0999V22.2435C14.0999 22.419 14.0999 22.5715 14.1056 22.6549C14.1113 22.7096 14.1283 22.7441 14.1765 22.7527C14.202 22.7585 14.2474 22.7585 14.273 22.7585C14.29 22.7585 14.2985 22.77 14.2985 22.7786C14.2985 22.793 14.2843 22.7988 14.2616 22.7988C14.1538 22.7988 14.012 22.793 13.9638 22.793C13.9184 22.793 13.7936 22.7988 13.717 22.7988C13.6915 22.7988 13.6801 22.793 13.6801 22.7786C13.6801 22.77 13.6858 22.7585 13.7113 22.7585C13.7397 22.7585 13.7624 22.7585 13.7794 22.7527C13.8191 22.7441 13.8305 22.7067 13.8361 22.652C13.8446 22.5715 13.8446 22.419 13.8446 22.2435V21.904C13.8446 21.6134 13.8446 21.5587 13.8446 21.4983C13.839 21.4321 13.822 21.412 13.7595 21.3947C13.7454 21.389 13.7113 21.389 13.683 21.389C13.6631 21.389 13.6489 21.3832 13.6489 21.3688C13.6489 21.3544 13.6631 21.3516 13.6943 21.3516C13.7964 21.3516 13.9212 21.3573 13.9666 21.3573C14.012 21.3573 14.1538 21.3516 14.2191 21.3516C14.2474 21.3516 14.2616 21.3573 14.2616 21.3688C14.2616 21.3803 14.2503 21.389 14.2361 21.389C14.2162 21.389 14.2049 21.389 14.1793 21.3947C14.1255 21.4034 14.1113 21.4292 14.1056 21.4983C14.1056 21.5587 14.1056 21.6134 14.1056 21.904V21.9903Z" fill="#3E3A39"/>
<path d="M15.246 21.904C15.246 21.6134 15.246 21.5587 15.246 21.4983C15.2403 21.4292 15.2233 21.412 15.1609 21.3947C15.1467 21.389 15.1127 21.389 15.0843 21.389C15.0616 21.389 15.0503 21.3832 15.0503 21.3688C15.0503 21.3544 15.0645 21.3516 15.0928 21.3516C15.1978 21.3516 15.3283 21.3573 15.3878 21.3573C15.4361 21.3573 15.5694 21.3516 15.6403 21.3516C15.6686 21.3516 15.6828 21.3573 15.6828 21.3688C15.6828 21.3803 15.6715 21.389 15.6516 21.389C15.6289 21.389 15.6176 21.389 15.5949 21.3947C15.5438 21.4034 15.5268 21.4292 15.524 21.4983C15.5183 21.5587 15.5183 21.6134 15.5183 21.904V22.1716C15.5183 22.4506 15.5722 22.56 15.6686 22.6377C15.7566 22.7067 15.8502 22.7153 15.9154 22.7153C16.0005 22.7153 16.0998 22.6894 16.1764 22.6146C16.2842 22.5111 16.2898 22.3442 16.2898 22.1485V21.9069C16.2898 21.6163 16.2898 21.5616 16.2842 21.5012C16.2785 21.435 16.2643 21.4149 16.2019 21.3976C16.1877 21.3918 16.1537 21.3918 16.131 21.3918C16.1083 21.3918 16.097 21.3861 16.097 21.3717C16.097 21.3573 16.1111 21.3544 16.1367 21.3544C16.2359 21.3544 16.3693 21.3602 16.3693 21.3602C16.3919 21.3602 16.5224 21.3544 16.599 21.3544C16.6245 21.3544 16.6387 21.3602 16.6387 21.3717C16.6387 21.3832 16.6274 21.3918 16.6047 21.3918C16.582 21.3918 16.5706 21.3918 16.548 21.3976C16.4941 21.4062 16.4799 21.4321 16.477 21.5012C16.477 21.5616 16.4714 21.6163 16.4714 21.9069V22.1111C16.4714 22.324 16.4487 22.5513 16.2842 22.6894C16.1452 22.8074 15.9977 22.8275 15.87 22.8275C15.7679 22.8275 15.5665 22.8218 15.4219 22.6981C15.3226 22.6089 15.2432 22.4679 15.2432 22.1917V21.9097L15.246 21.904Z" fill="#3E3A39"/>
<path d="M3.05757 26.5275C3.01219 26.5275 2.95546 26.5246 2.89873 26.5131C2.81931 26.493 2.71152 26.4412 2.56686 26.0959C2.32576 25.5147 1.72159 23.9841 1.63082 23.7712C1.59395 23.682 1.57126 23.6475 1.53722 23.6475C1.50035 23.6475 1.47765 23.6906 1.43227 23.8L0.484887 26.1736C0.408302 26.3664 0.33739 26.4959 0.164365 26.5189C0.133163 26.5217 0.0821069 26.5275 0.0480692 26.5275C0.0168679 26.5275 0.00268555 26.5361 0.00268555 26.5592C0.00268555 26.5908 0.0253774 26.5966 0.0735975 26.5966C0.269314 26.5966 0.476377 26.585 0.518924 26.585C0.63522 26.585 0.796899 26.5966 0.918867 26.5966C0.961415 26.5966 0.984106 26.5879 0.984106 26.5592C0.984106 26.5361 0.972761 26.5275 0.927377 26.5275H0.870647C0.754352 26.5275 0.720314 26.4786 0.720314 26.4095C0.720314 26.3635 0.740169 26.2714 0.777044 26.1765L0.98127 25.6528C0.989779 25.6298 0.995452 25.6212 1.01531 25.6212H1.85774C1.8776 25.6212 1.88894 25.6298 1.89462 25.6471L2.19528 26.4354C2.21514 26.4815 2.18677 26.516 2.16124 26.5246C2.12437 26.5275 2.10735 26.5361 2.10735 26.5592C2.10735 26.585 2.15273 26.585 2.22081 26.5908C2.52148 26.5994 2.79945 26.5994 2.93277 26.5994C3.06608 26.5994 3.10579 26.5908 3.10579 26.562C3.10579 26.5361 3.08594 26.5304 3.05757 26.5304V26.5275ZM1.78116 25.4284H1.08622C1.07204 25.4284 1.06636 25.4169 1.07204 25.4025L1.41809 24.4646C1.42092 24.4502 1.42943 24.4301 1.44078 24.4301C1.45212 24.4301 1.45496 24.4502 1.46063 24.4646L1.80101 25.4054C1.80101 25.4054 1.80101 25.4284 1.78116 25.4284Z" fill="#3E3A39"/>
<path d="M4.18375 24.1338C3.98236 24.1338 3.74693 24.1424 3.64482 24.1424C3.55121 24.1424 3.33848 24.1338 3.16545 24.1338C3.11723 24.1338 3.08887 24.1424 3.08887 24.1654C3.08887 24.1885 3.11156 24.2 3.1456 24.2C3.19382 24.2 3.25055 24.2028 3.27891 24.2115C3.38386 24.2431 3.41506 24.2776 3.42074 24.387C3.42357 24.4906 3.42357 24.5826 3.42357 25.0775V25.6529C3.42357 25.9522 3.42357 26.2082 3.40939 26.3463C3.39804 26.4413 3.37819 26.5017 3.31011 26.519C3.27891 26.5276 3.24204 26.5305 3.19382 26.5305C3.15127 26.5305 3.13992 26.5506 3.13992 26.565C3.13992 26.588 3.16262 26.5995 3.20516 26.5995C3.27324 26.5995 3.3555 26.5966 3.43492 26.5909C3.51434 26.5909 3.58525 26.588 3.62212 26.588C3.70438 26.588 3.82635 26.5966 3.95683 26.6082C4.09014 26.6168 4.23197 26.6283 4.35394 26.6283C4.96662 26.6283 5.3155 26.3981 5.46867 26.2456C5.65872 26.0586 5.83174 25.7479 5.83174 25.3393C5.83174 24.9538 5.68424 24.6805 5.51973 24.5136C5.15666 24.1424 4.59787 24.1424 4.18375 24.1424V24.1338ZM5.0744 26.2312C4.87301 26.3981 4.65177 26.4528 4.3511 26.4528C4.09014 26.4528 3.95967 26.3837 3.91712 26.3233C3.89159 26.2888 3.88308 26.1737 3.88024 26.0931C3.87741 26.027 3.87173 25.7795 3.87173 25.4343V25.0257C3.87173 24.7696 3.87173 24.5021 3.87457 24.3899C3.87457 24.3525 3.88592 24.3352 3.91712 24.3237C3.94265 24.3093 4.05327 24.3007 4.12134 24.3007C4.3823 24.3007 4.74537 24.3352 5.04887 24.6114C5.19637 24.7409 5.35805 25.0084 5.35805 25.4228C5.35805 25.7594 5.28997 26.05 5.0744 26.2312Z" fill="#3E3A39"/>
<path d="M8.37598 24.2373C8.43271 24.1942 8.50362 24.1999 8.53766 24.1999C8.57169 24.1999 8.59155 24.1884 8.59155 24.1654C8.59155 24.1424 8.56602 24.1337 8.52347 24.1337C8.42136 24.1337 8.26819 24.1424 8.21146 24.1424C8.16892 24.1424 8.02425 24.1337 7.8569 24.1337C7.79166 24.1337 7.7633 24.1424 7.7633 24.1654C7.7633 24.1884 7.78883 24.1999 7.82003 24.1999C7.86258 24.1999 7.91363 24.2028 7.95334 24.2143C7.98454 24.2258 7.99873 24.2373 7.99873 24.2718C7.99873 24.2977 7.98454 24.3495 7.96753 24.3898C7.8881 24.6056 7.46263 25.6529 7.31797 25.9895H7.30663L6.74784 24.5308C6.70246 24.4157 6.67126 24.3265 6.67126 24.2862C6.67126 24.2546 6.6826 24.2373 6.70529 24.2201C6.73082 24.1999 6.78188 24.197 6.83293 24.197C6.86414 24.197 6.88683 24.1855 6.88683 24.1625C6.88683 24.1395 6.84995 24.1309 6.80741 24.1309C6.64005 24.1309 6.46703 24.1395 6.38477 24.1395C6.26848 24.1395 6.07843 24.1309 5.90257 24.1309C5.85435 24.1309 5.82031 24.1337 5.82031 24.1625C5.82031 24.1826 5.82882 24.197 5.85719 24.197C5.88271 24.197 5.93661 24.197 5.98483 24.2085C6.1068 24.2402 6.15502 24.269 6.22876 24.4502L7.06553 26.4412C7.13076 26.5937 7.15629 26.6369 7.20168 26.6369C7.24706 26.6369 7.27826 26.588 7.36052 26.3981C7.4371 26.2341 7.59027 25.8773 7.80301 25.4026C7.98454 25.0055 8.06964 24.8271 8.20295 24.5222C8.29088 24.315 8.33627 24.2661 8.37598 24.2344V24.2373Z" fill="#3E3A39"/>
<path d="M13.598 24.1337C13.4363 24.1337 13.3115 24.1423 13.2747 24.1423C13.2037 24.1423 13.025 24.1337 12.852 24.1337C12.8038 24.1337 12.7698 24.1366 12.7698 24.1654C12.7698 24.1855 12.7811 24.1999 12.8237 24.1999C12.869 24.1999 12.9485 24.1999 12.9967 24.22C13.0761 24.2517 13.1073 24.3092 13.1101 24.5077L13.1442 25.955H13.13C13.0818 25.9089 12.6393 25.4486 12.4124 25.2242C11.9302 24.7466 11.4309 24.2287 11.3884 24.1855C11.3317 24.128 11.2863 24.079 11.2466 24.079C11.2125 24.079 11.1898 24.1251 11.1898 24.1913L11.1586 26.1218C11.1558 26.4038 11.1445 26.493 11.0565 26.516C11.0111 26.5275 10.9516 26.5304 10.9062 26.5304C10.892 26.5304 10.8807 26.5333 10.8693 26.539C10.8608 26.5333 10.8495 26.5304 10.8353 26.5304C10.7984 26.5304 10.7587 26.5275 10.7105 26.5189C10.6509 26.5074 10.5545 26.4642 10.4268 26.1707C10.2141 25.6759 9.66098 24.361 9.58156 24.1798C9.54753 24.1078 9.53334 24.0762 9.48229 24.0762C9.44825 24.0762 9.42272 24.1136 9.38301 24.2056L8.51505 26.2398C8.44697 26.4038 8.39024 26.5045 8.23991 26.5275C8.20871 26.5275 8.17184 26.5304 8.14063 26.5304C8.11511 26.5304 8.10376 26.5448 8.10376 26.5649C8.10376 26.5908 8.12362 26.5994 8.16333 26.5994C8.33635 26.5994 8.51505 26.5879 8.54909 26.5879C8.65404 26.5879 8.81004 26.5994 8.91783 26.5994C8.95187 26.5994 8.97172 26.5908 8.97172 26.5649C8.97172 26.5448 8.96321 26.5304 8.9235 26.5304H8.87528C8.77317 26.5304 8.74197 26.4959 8.74197 26.4383C8.74197 26.4009 8.75615 26.3204 8.79019 26.2398L8.96889 25.7996C8.97739 25.7795 8.98023 25.7766 9.00009 25.7766H9.78012C9.7943 25.7766 9.80565 25.7795 9.81415 25.7996L10.0694 26.4585C10.0836 26.4959 10.0609 26.5275 10.0382 26.5304C10.0042 26.5333 9.99569 26.5448 9.99569 26.5649C9.99569 26.5879 10.0326 26.5879 10.095 26.5908C10.3729 26.5994 10.6169 26.5994 10.7332 26.5994C10.8154 26.5994 10.8495 26.5966 10.8637 26.5851C10.875 26.5937 10.8949 26.5994 10.9232 26.5994C11.0934 26.5994 11.2522 26.5879 11.2806 26.5879C11.3402 26.5879 11.4962 26.5994 11.7118 26.5994C11.7571 26.5994 11.7883 26.5908 11.7883 26.5649C11.7883 26.5448 11.7685 26.5304 11.7316 26.5304C11.6777 26.5304 11.6153 26.5275 11.5586 26.5074C11.4933 26.4844 11.4536 26.4067 11.4451 26.1564L11.4083 24.8271H11.4196C11.4848 24.8847 11.8337 25.2788 12.1968 25.6298C12.5428 25.9693 12.9598 26.3721 13.1669 26.5678C13.2009 26.6023 13.2463 26.6368 13.303 26.6368C13.3285 26.6368 13.3569 26.6052 13.3569 26.5333L13.3938 24.4819C13.3966 24.2977 13.425 24.2402 13.5158 24.2143C13.5583 24.2028 13.5838 24.2028 13.6179 24.2028C13.6547 24.2028 13.6746 24.1884 13.6746 24.1682C13.6746 24.1423 13.6434 24.1366 13.598 24.1366V24.1337ZM9.70921 25.5924H9.06816C9.06816 25.5924 9.04831 25.5838 9.05682 25.5694L9.37734 24.7581C9.37734 24.7581 9.38585 24.7264 9.39719 24.7264C9.4057 24.7264 9.40854 24.7466 9.41138 24.7581L9.72339 25.5723C9.72339 25.5723 9.72339 25.5924 9.70921 25.5924Z" fill="#3E3A39"/>
<path d="M16.3238 25.9806C16.2983 25.9806 16.2898 25.995 16.2813 26.0468C16.2699 26.1072 16.2246 26.1993 16.1678 26.2655C16.0345 26.4151 15.8728 26.4381 15.5778 26.4381C15.1325 26.4381 14.5425 26.0698 14.5425 25.2959C14.5425 24.9794 14.6021 24.6629 14.8489 24.45C14.9992 24.3205 15.1836 24.2658 15.4757 24.2658C15.7821 24.2658 16.0033 24.3464 16.1168 24.4586C16.199 24.542 16.2416 24.6571 16.2444 24.7607C16.2444 24.8039 16.2529 24.8298 16.2784 24.8298C16.3097 24.8298 16.321 24.7952 16.3238 24.7492C16.3267 24.683 16.3267 24.5046 16.3352 24.3982C16.3437 24.2831 16.3494 24.2457 16.3494 24.2169C16.3494 24.1968 16.338 24.1824 16.3011 24.1795C16.2019 24.168 16.0941 24.145 15.9693 24.1249C15.8189 24.1047 15.6941 24.0903 15.4871 24.0903C14.9935 24.0903 14.6758 24.2198 14.4347 24.4356C14.1171 24.7233 14.0461 25.106 14.0461 25.3275C14.0461 25.6411 14.1341 26.0094 14.4603 26.2885C14.7609 26.5446 15.1467 26.6395 15.6005 26.6395C15.8161 26.6395 16.0685 26.6194 16.2019 26.5676C16.2586 26.5446 16.2728 26.5302 16.2898 26.4726C16.3238 26.3604 16.3607 26.0785 16.3607 26.041C16.3607 26.0152 16.3465 25.9835 16.3238 25.9835V25.9806Z" fill="#3E3A39"/>
<path d="M18.4228 26.0844C18.4001 26.0844 18.3916 26.0988 18.3859 26.1333C18.3633 26.2686 18.3264 26.3376 18.2413 26.375C18.1534 26.4124 18.0144 26.4182 17.9293 26.4182C17.5889 26.4182 17.4868 26.3693 17.4811 26.1448C17.4783 26.0499 17.4811 25.7737 17.4811 25.6615V25.4025C17.4811 25.3824 17.4839 25.368 17.501 25.368C17.5832 25.368 17.9605 25.3766 18.0229 25.3824C18.1477 25.3939 18.1902 25.4428 18.2072 25.509C18.2158 25.5521 18.2158 25.5924 18.2186 25.6269C18.2186 25.6413 18.2271 25.6528 18.2498 25.6528C18.281 25.6528 18.2838 25.6068 18.2838 25.5809C18.2838 25.5579 18.2923 25.4284 18.298 25.3623C18.3179 25.1983 18.3235 25.1436 18.3235 25.1234C18.3235 25.1033 18.3122 25.0889 18.298 25.0889C18.2838 25.0889 18.2725 25.1091 18.2441 25.1321C18.2101 25.1637 18.1647 25.1752 18.0853 25.181C18.0087 25.1896 17.5804 25.1896 17.5038 25.1896C17.4839 25.1896 17.4811 25.1752 17.4811 25.1551V24.3524C17.4811 24.3322 17.4896 24.3207 17.5038 24.3207C17.5719 24.3207 17.969 24.3293 18.0257 24.3351C18.1902 24.3495 18.2186 24.3955 18.2441 24.4531C18.264 24.4905 18.2668 24.548 18.2668 24.571C18.2668 24.5969 18.2697 24.6142 18.2923 24.6142C18.3179 24.6142 18.3264 24.5768 18.3292 24.5595C18.3377 24.5221 18.3434 24.3811 18.3491 24.3437C18.3576 24.1941 18.3746 24.1567 18.3746 24.1337C18.3746 24.1193 18.3718 24.1021 18.3519 24.1021C18.3377 24.1021 18.3179 24.1136 18.298 24.1164C18.2725 24.1193 18.2186 24.1308 18.159 24.1366C18.0938 24.1395 17.3591 24.1366 17.2542 24.1366C17.1606 24.1366 16.9479 24.1279 16.7748 24.1279C16.7266 24.1279 16.6982 24.1366 16.6982 24.1596C16.6982 24.1826 16.7209 24.1941 16.755 24.1941C16.8032 24.1941 16.8599 24.197 16.8883 24.2056C16.9932 24.2373 17.0244 24.2718 17.0301 24.3811C17.0329 24.4847 17.0329 24.5768 17.0329 25.0717V25.6471C17.0329 25.9463 17.0329 26.2024 17.0188 26.3405C17.0074 26.4354 16.9876 26.4959 16.9195 26.5131C16.8883 26.5217 16.8514 26.5246 16.8032 26.5246C16.7606 26.5246 16.7493 26.5448 16.7493 26.5592C16.7493 26.5822 16.772 26.5937 16.8145 26.5937C16.8826 26.5937 16.9649 26.5908 17.0443 26.585C17.1237 26.585 17.1946 26.5822 17.2343 26.5822C17.3336 26.5822 17.4584 26.585 17.6201 26.5908C17.7818 26.5994 17.9832 26.6023 18.2328 26.6023C18.3576 26.6023 18.3888 26.6023 18.4115 26.5189C18.4313 26.4527 18.4569 26.2312 18.4569 26.1592C18.4569 26.1247 18.454 26.0815 18.4257 26.0815L18.4228 26.0844Z" fill="#3E3A39"/>
<path d="M6.75635 2.95485V17.2112C8.19728 18.7045 9.43398 19.7661 9.43398 19.7661C9.43398 19.7661 10.6934 18.7275 12.1485 17.2429V0L6.75635 2.95485Z" fill="#696665"/>
<path d="M6.36503 3.73189L2.35425 1.64307V10.2372H2.35708C2.42232 12.1677 4.48161 14.7917 6.36219 16.8V3.73189H6.36503Z" fill="#21B8C5"/>
<path d="M12.5032 3.69449V16.8748C14.3866 14.901 16.4459 12.2828 16.5111 10.2314H16.514V1.64307L12.5032 3.69449Z" fill="#F6AD3C"/>
<path d="M27.8995 6.23754V8.27745L24.8418 6.97985V4.93994L27.8995 6.23754ZM27.8995 10.3519V12.4263L24.8418 11.1115V9.10608L27.8995 10.3548V10.3519ZM26.3196 13.5369H28.0981C28.0981 15.1452 27.8201 16.5148 27.267 17.6513C26.711 18.7849 25.9055 19.602 24.8418 20.0968V17.6023C25.2729 17.2657 25.6275 16.7507 25.9055 16.0602C26.1835 15.3697 26.3196 14.5295 26.3196 13.5398V13.5369ZM30.0354 13.2521C30.0354 14.3886 29.9787 15.4732 29.868 16.4112C29.7574 17.3492 29.6156 18.3331 29.3943 19.2682H28.0073C28.2285 18.3245 28.4299 17.3348 28.5916 16.3019C28.7533 15.269 28.7987 14.1872 28.7987 13.2521H30.0354ZM32.3528 4.93994V6.55691H34.1823V8.39542H32.3528V10.5188H34.5964V12.4234H32.3698V18.1548C32.3698 18.7964 32.211 19.2797 31.8961 19.6049C31.5813 19.93 31.1671 20.094 30.6566 20.094H29.7659V18.2065H30.2084C30.3758 18.2065 30.5147 18.1548 30.631 18.0454C30.7473 17.939 30.8069 17.7951 30.8069 17.6167V12.4234H28.5945V10.5188H30.4892V4.93994H32.35H32.3528ZM34.361 13.2348V19.2682H33.1243V13.2348H34.361ZM39.7673 5.20752V6.8101C39.7673 8.72054 39.6482 10.4382 39.4099 11.9602C39.1717 13.4822 38.7859 14.8345 38.2555 16.0141C38.7207 16.7219 39.2256 17.2772 39.7673 17.6829V20.094C39.3022 19.8005 38.8682 19.4552 38.4626 19.0582C38.0569 18.6583 37.691 18.195 37.3563 17.6685C36.9791 18.1864 36.5876 18.6381 36.1849 19.0265C35.7821 19.415 35.3169 19.7717 34.7978 20.0968V17.6858C35.4502 17.2369 35.9948 16.6529 36.426 15.9336C35.9835 14.9122 35.6459 13.816 35.4133 12.645C35.1808 11.4769 35.0645 10.2512 35.0645 8.97085H36.5933C36.5933 9.88003 36.6557 10.7604 36.7834 11.6092C36.911 12.458 37.101 13.2406 37.3563 13.9599C37.6343 13.0938 37.847 12.0983 37.9974 10.9762C38.1477 9.85126 38.2215 8.5997 38.2215 7.21578H35.0134V5.2104H39.7673V5.20752Z" fill="#3E3A39"/>
<path d="M67.0428 14.9093C65.9026 17.7577 63.6391 19.3632 60.882 20.1055V17.8268C63.8773 16.6529 65.5452 14.495 65.5452 10.2829V9.2816H67.8257V10.4037C67.8257 11.146 67.7746 11.8365 67.6895 12.4753C70.2254 11.802 71.6209 10.1102 72.0464 7.69341H60.3374V5.44922H74.7183V5.89806C74.5311 11.7329 70.9231 14.2361 67.0428 14.9093Z" fill="#3E3A39"/>
<path d="M80.3714 12.1472V20.209H77.9377V4.77588H80.3714V9.74762C83.8093 10.4727 87.1279 11.215 90.3275 12.1472V14.6158C86.8727 13.6318 83.537 12.8204 80.3714 12.1472Z" fill="#3E3A39"/>
<path d="M85.6218 7.91795V5.24219L87.2585 5.48675V8.16251L85.6218 7.91795Z" fill="#21B8C5"/>
<path d="M87.6101 8.16251V5.48675L89.2638 5.24219V7.91795L87.6101 8.16251Z" fill="#F6AD3C"/>
<path d="M104.343 7.91795V5.24219L105.976 5.48675V8.16251L104.343 7.91795Z" fill="#21B8C5"/>
<path d="M106.331 8.16251V5.48675L107.982 5.24219V7.91795L106.331 8.16251Z" fill="#F6AD3C"/>
<path d="M91.6975 20.2092V17.4644C94.3014 14.8404 95.1523 10.8527 95.1523 6.2607V5.24219H97.6031V6.17439C97.6031 13.4594 95.5268 17.965 91.6975 20.2092ZM100.939 6.19165V5.24219H103.389V6.2607C103.389 10.8527 104.257 14.8232 106.861 17.4644V20.2092C103.015 17.965 100.939 13.4421 100.939 6.19165Z" fill="#3E3A39"/>
<path d="M110.044 7.90346V5.50391C112.307 5.67654 115.013 6.0218 117.396 6.50516V8.99103C114.979 8.45588 112.341 8.05883 110.044 7.90346ZM110.248 19.9271V17.5794C116.392 17.0787 120.545 15.1971 121.361 8.08472H123.863C123.08 16.4228 118.179 19.6164 110.248 19.9271Z" fill="#3E3A39"/>
<path d="M133.893 14.6846C131.442 17.4812 128.209 19.242 125.23 20.0016V17.6538C129.247 16.4627 133.485 12.9612 134.897 7.78227H126.064V5.53809H137.807C137.501 8.23111 136.65 10.5933 135.459 12.5267C136.497 14.9953 138.335 16.5835 140.003 17.6193V20.1742C137.297 19.0694 135.204 17.0324 133.893 14.6846Z" fill="#3E3A39"/>
<path d="M47.2983 7.43444H51.519V8.53064H47.7295V14.262H57.2374V8.53064H53.4138V7.43444H57.6345V5.81748H53.4138V4.93994H51.519V5.81748H47.2983V7.43444ZM50.4724 12.7112H49.1931V10.0987H50.4724V12.7112ZM54.4604 10.0987H55.7567V12.7112H54.4604V10.0987ZM51.8339 10.0987H53.1131V12.7112H51.8339V10.0987Z" fill="#3E3A39"/>
<path d="M53.1556 17.6971H54.6334L54.1767 15.0386H52.7273L53.1556 17.6971Z" fill="#3E3A39"/>
<path d="M52.384 18.2552C52.1968 18.2552 52.0465 18.2035 51.9358 18.1028C51.8252 18.0021 51.7685 17.8553 51.7685 17.6654V15.0386H50.0723V18.1545C50.0723 18.6926 50.2283 19.1357 50.5374 19.478C50.8466 19.8204 51.2182 19.9931 51.6522 19.9931H55.4077V18.2552H52.384Z" fill="#3E3A39"/>
<path d="M56.8402 15.0386H55.2773L56.1141 19.8924H57.66L56.8402 15.0386Z" fill="#3E3A39"/>
<path d="M45.602 8.33494C46.4331 7.36246 47.0033 6.23174 47.3153 4.93701H45.4857C45.3184 5.63329 44.9837 6.30079 44.4816 6.93376C43.9767 7.56962 43.3868 8.04435 42.7117 8.35796V10.4151C43.8094 9.99795 44.7738 9.30455 45.6049 8.33207L45.602 8.33494Z" fill="#3E3A39"/>
<path d="M47.5648 18.2379C47.4428 19.0522 47.1875 19.8348 47.0996 19.9901H48.8554C49.0029 19.6334 49.1475 19.1414 49.2525 18.2868C49.3574 17.4323 49.4113 16.2843 49.4113 15.0356H47.7662C47.7662 16.1808 47.7066 17.3 47.5676 18.2351L47.5648 18.2379Z" fill="#3E3A39"/>
<path d="M47.3493 9.39062H45.5368C45.3496 10.2567 45.0007 11.0565 44.4901 11.7931C43.9796 12.5296 43.3868 13.082 42.7117 13.4532V15.5104C43.2875 15.2169 43.8463 14.8572 44.3909 14.4314V20.0966H46.1693V12.3109C46.3736 11.9657 46.5551 11.6089 46.7168 11.2464C46.9834 10.6508 47.1933 10.0322 47.3493 9.39062Z" fill="#3E3A39"/>
</g>
<defs>
<clipPath id="clip0_1_3573">
<rect width="140" height="26.6397" fill="white"/>
</clipPath>
</defs>
</svg>
